<?xml version="1.0" encoding="iso-8859-1"?>
<!-- Generator: Adobe Illustrator 19.0.0, SVG Export Plug-In . SVG Version: 6.00 Build 0)  -->
<svg version="1.1" id="Capa_1" xmlns="http://www.w3.org/2000/svg" xmlns:xlink="http://www.w3.org/1999/xlink" x="0px" y="0px"
	 viewBox="0 0 367.12 367.12" style="enable-background:new 0 0 367.12 367.12;" xml:space="preserve">
<g>
	<g>
		<path d="M278.32,202.74l-77.36-97.12V210.1h73.8c1.739,0.003,3.326-0.993,4.08-2.56C279.598,205.972,279.396,204.11,278.32,202.74
			z"/>
	</g>
</g>
<g>
	<g>
		<path d="M362.6,232.62c-0.013,0-0.027,0-0.04,0H188.12V50.98c-0.008-0.548-0.116-1.091-0.32-1.6l-0.24-0.48
			c-0.161-0.33-0.363-0.639-0.6-0.92l-0.4-0.4c-0.278-0.251-0.588-0.466-0.92-0.64l-0.44-0.24c-0.464-0.157-0.95-0.238-1.44-0.24
			h-0.32c-0.436,0.018-0.867,0.099-1.28,0.24l-0.52,0.24c-0.317,0.164-0.612,0.365-0.88,0.6l-0.4,0.36h-0.2L56.88,202.74
			c-1.547,1.988-1.189,4.853,0.799,6.399c0.79,0.615,1.76,0.952,2.761,0.961H179v22.52H4.56c-2.496-0.022-4.538,1.983-4.56,4.48
			c0,0.027,0,0.054,0,0.08c0.066,46.109,37.451,83.458,83.56,83.48h200c46.124-0.022,83.516-37.396,83.56-83.52
			C367.12,234.644,365.097,232.62,362.6,232.62z"/>
	</g>
</g>
<g>
</g>
<g>
</g>
<g>
</g>
<g>
</g>
<g>
</g>
<g>
</g>
<g>
</g>
<g>
</g>
<g>
</g>
<g>
</g>
<g>
</g>
<g>
</g>
<g>
</g>
<g>
</g>
<g>
</g>
</svg>
